<?xml version="1.0" encoding="UTF-8"?>
<svg width="332px" height="221px" viewBox="0 0 332 221" version="1.1" xmlns="http://www.w3.org/2000/svg" xmlns:xlink="http://www.w3.org/1999/xlink">
    <!-- Generator: Sketch 62 (91390) - https://sketch.com -->
    <title>Group</title>
    <desc>Created with Sketch.</desc>
    <defs>
        <rect id="path-1" x="19.6541494" y="27.5675676" width="292.248656" height="89.7297297" rx="20"></rect>
        <rect id="path-3" x="0" y="0" width="292.533499" height="145.675676" rx="6"></rect>
        <ellipse id="path-5" cx="40.0204056" cy="37.972973" rx="40.0204056" ry="37.972973"></ellipse>
    </defs>
    <g id="Rendered" stroke="none" stroke-width="1" fill="none" fill-rule="evenodd">
        <g id="Artboard" transform="translate(-51.000000, -96.000000)">
            <g id="Group" transform="translate(51.000000, 96.000000)">
                <g id="UI-/-Social-/-Page-/-1" transform="translate(0.000000, 0.500000)">
                    <g id="Page">
                        <g id="Browser" fill-rule="nonzero">
                            <rect id="Background" fill="#F2F6FB" x="0" y="8.91891892" width="331.556955" height="211.081081" rx="10"></rect>
                            <g id="Gallery-">
                                <path d="M291.966031,130.127764 C303.011131,130.127764 311.964953,139.080826 311.964953,150.133205 L311.964953,167.321341 C311.964953,178.370041 303.000921,187.326781 291.966031,187.326781 L244.553404,187.326781 C233.508305,187.326781 224.554483,178.37372 224.554483,167.321341 L224.554483,150.133205 C224.554483,139.084505 233.518514,130.127764 244.553404,130.127764 L291.966031,130.127764 Z M189.484791,130.127764 C200.52989,130.127764 209.483712,139.080826 209.483712,150.133205 L209.483712,167.321341 C209.483712,178.370041 200.519681,187.326781 189.484791,187.326781 L142.072164,187.326781 C131.027064,187.326781 122.073242,178.37372 122.073242,167.321341 L122.073242,150.133205 C122.073242,139.084505 131.037274,130.127764 142.072164,130.127764 L189.484791,130.127764 Z M325.608265,0 C328.893635,0 331.556955,2.66877266 331.556955,5.94594595 L331.556955,11.8918919 L0,11.8918919 L0,5.94594595 C0,2.66209068 2.66884893,0 5.94868973,0 L325.608265,0 Z" id="Combined-Shape" fill="#D8DEED"></path>
                                <ellipse id="Burron" fill="#FF5645" cx="8.40286096" cy="6.08108108" rx="2.70600607" ry="2.56756757"></ellipse>
                                <ellipse id="Burron" fill="#FFCB3D" cx="17.232986" cy="6.08108108" rx="2.70600607" ry="2.56756757"></ellipse>
                                <ellipse id="Burron" fill="#3ABF7C" cx="26.3479539" cy="6.08108108" rx="2.70600607" ry="2.56756757"></ellipse>
                            </g>
                        </g>
                        <mask id="mask-2" fill="white">
                            <use xlink:href="#path-1"></use>
                        </mask>
                        <use id="Mask" fill="#E1E5F0" fill-rule="nonzero" xlink:href="#path-1"></use>
                        <g id="Graphics" mask="url(#mask-2)">
                            <g transform="translate(19.654149, 16.486486)" id="Graphics-">
                                <g>
                                    <g id="Graphic">
                                        <mask id="mask-4" fill="white">
                                            <use xlink:href="#path-3"></use>
                                        </mask>
                                        <use id="Mask" fill="#E1E5F0" fill-rule="nonzero" xlink:href="#path-3"></use>
                                        <g id="Group-3" mask="url(#mask-4)" fill="#D8DEED" fill-rule="nonzero">
                                            <g transform="translate(-4.958429, 11.036490)" id="completed">
                                                <path d="M0.262423818,149.622293 L340.128341,149.622293 L340.128341,0.0599891756 C332.143512,23.0387777 316.930382,35.5356662 300.54807,35.5356662 C291.082849,35.5356662 281.230766,31.3671037 272.152407,22.6362199 C263.177211,14.0065256 253.111924,9.88415819 243.184188,9.88415819 C225.692872,9.88195842 208.622805,22.6692165 198.646926,46.114356 C190.828877,64.486828 180.519437,73.6752637 170.209997,73.6752637 C159.900558,73.6752637 149.589398,64.486828 141.766191,46.1077567 C131.785154,22.6648169 114.704771,9.87315934 97.2117356,9.87095957 C87.2805608,9.87095957 77.2187126,13.9911272 68.2417971,22.6230213 C59.1634378,31.3517053 49.307916,35.5202678 39.8444142,35.5202678 C23.4603828,35.5202678 8.24725346,23.0255791 0.262423818,0.0445907915 L0.262423818,149.622293 Z"></path>
                                            </g>
                                        </g>
                                    </g>
                                </g>
                            </g>
                        </g>
                        <g id="Userpic" mask="url(#mask-2)">
                            <g transform="translate(35.035658, 33.990172)" id="User">
                                <g transform="translate(0.000000, 0.171990)">
                                    <mask id="mask-6" fill="white">
                                        <use xlink:href="#path-5"></use>
                                    </mask>
                                    <use id="Oval" fill="#FFCB3D" fill-rule="nonzero" xlink:href="#path-5"></use>
                                    <g id="Body" mask="url(#mask-6)">
                                        <g transform="translate(36.822511, 48.293834) scale(-1, 1) rotate(1.000000) translate(-36.822511, -48.293834) translate(-0.349467, 7.212753)">
                                            <polyline id="Path" fill="#BF865F" fill-rule="nonzero" points="0.863753295 80.4389252 14.8780163 80.1281144 14.8780163 64.4659523 3.71218074 63.195682 2.94310533 66.6551415"></polyline>
                                            <path d="M43.6913489,27.3691197 L43.8181663,27.3140388 C45.9533383,26.4390893 51.6559024,26.7218011 51.7102814,26.7475997 C53.7896335,26.8016537 57.4335223,27.1146009 61.2788994,29.6281144 C61.8485849,30.0064928 62.7031131,30.6010874 63.5861256,31.4659523 C64.355201,32.195682 65.8131695,32.5966533 67.6361631,39.326383 C68.2913014,41.7047614 69.0835906,47.6440562 71.8750495,51.6551415 C72.435205,52.4600365 73.2072112,55.7049338 74.1910682,61.3898332 C67.8476727,62.1800891 63.0153308,62.7742243 59.6940423,63.1722389 C60.5135805,69.1914953 60.559451,74.2194269 59.997107,77.4929793 C60.4850388,79.4749613 60.6435519,80.6551415 60.4726462,81.0335198 C51.0406523,81.2497361 45.4226533,81.3848712 43.6186492,81.4389252 C39.1751024,81.5740604 27.0094897,82.6507126 15.6808465,81.8718211 C12.832419,79.3042535 12.9695699,70.6010874 12.9695699,70.6010874 C13.0331688,68.8880622 13.0963245,67.2593003 13.1590048,65.7110048 C7.81205586,64.6248154 3.49452735,63.4016812 0.206526037,62.0422825 C1.2903211,56.6130173 2.00312427,53.4299162 2.34493557,52.4929793 C3.34188517,49.8173036 5.55493959,45.1025922 6.07853053,42.6781458 C7.70007913,35.1696935 9.86478402,33.0335198 10.6338594,32.3037901 C11.5168719,31.4389252 15.2071467,28.418567 20.8080159,27.6691301 C22.0358443,27.5048377 24.4339075,27.2965388 28.0022055,27.0442333 C29.5770284,26.7863191 31.0792505,26.671483 32.3673608,26.5740604 C36.0884396,26.313404 39.9846845,26.031972 43.6913489,27.3691197 Z" id="Shirt" fill="#474961" fill-rule="nonzero"></path>
                                            <path d="M43.6680876,27.3841313 C40.9557799,33.088992 39.5687443,38.4099848 39.5069808,43.3471097 C39.4452172,48.2842346 39.6012304,56.7649567 39.9750202,68.7892761 L23.0790728,68.9708129 C23.016901,57.9744131 23.2426018,49.520134 23.7561752,43.6079756 C24.2697486,37.6958173 26.2871067,32.0821507 29.8082496,26.7669758 C34.1856457,26.3062536 37.3144661,26.1747351 39.1947108,26.3724203 C41.0749556,26.5701056 42.5660812,26.9073426 43.6680876,27.3841313 Z" id="T-shirt" fill="#FFFFFF" fill-rule="evenodd"></path>
                                            <path d="M30.0106128,0.613814524 C30.2669713,0.640841551 31.1784681,0.748949659 32.4887447,0.83003074 C33.2008516,0.884084794 33.7705371,0.884084794 34.1123484,0.911111821 C38.3565053,1.07327398 40.0370774,0.586787497 42.173398,1.66786858 C42.5721779,1.85705777 43.4836747,2.34354425 44.2812343,3.2894902 C46.531492,5.96516588 45.9902908,9.42462533 45.8478694,10.4516524 C45.3351525,13.5327334 43.4551904,15.4246253 42.8855049,16.2084091 C42.2052793,17.1604117 41.0580302,18.3243463 40.2438546,19.1078349 L40.5497944,27.9942977 C40.5497944,28.1913481 40.4643416,28.3883985 40.2934359,28.4728487 C39.5528448,28.9232495 38.4989266,29.4299505 37.18865,29.7114511 C34.8244552,30.2463021 32.8020717,29.8522013 31.6627008,29.5144007 C31.4348266,29.4581006 31.2639209,29.2329001 31.2639209,29.0076997 L31.1457155,23.7710937 C29.6531385,24.2977649 29.7364961,24.2449843 29.5901696,24.2912645 C27.7956603,24.7236969 26.2575095,24.6696429 25.9726668,24.6155888 C24.9472329,24.5345077 23.8648305,23.7236969 22.8963651,22.3453185 C21.5860885,20.5074807 20.4182333,17.6426158 19.7915792,14.2101834 C19.7004296,13.8209942 19.6639697,13.431805 19.6384478,13.0426158 L19.6206736,12.750724 L19.5067365,7.91288612 C19.4782522,6.83180504 19.763095,5.77775098 20.3042962,4.77775098 C20.5321704,4.34531855 20.7600446,3.9939672 21.0448873,3.6966699 C22.7357138,1.63829152 25.1768845,0.902118549 27.1678487,0.676520278 L27.2667972,0.665689802 C28.3359124,0.535773117 29.3101109,0.541958907 30.0106128,0.613814524 Z" id="Skin" fill="#DB9E75" fill-rule="nonzero" transform="translate(32.756465, 15.268519) rotate(-2.000000) translate(-32.756465, -15.268519) "></path>
                                            <path d="M15.472247,49.9329453 L15.557302,49.944187 C15.7859661,49.99726 15.9357893,50.2193405 15.8919416,50.4402178 C15.4788955,52.5208851 12.8492262,63.4213744 11.9300267,67.0019702 C11.8741253,67.2197253 11.6455831,67.3438001 11.4195634,67.2790989 C11.1935437,67.2143978 11.0556356,66.9854218 11.111537,66.7676667 C12.0272438,63.2006758 14.6545144,52.31013 15.0638758,50.2480236 C15.0967616,50.0823656 15.2292474,49.964433 15.3899026,49.9382104 L15.472247,49.9329453 Z M50.1186731,49.3621079 C50.8362464,51.3583223 54.1963468,62.0562451 55.2525823,65.5988375 C55.3168176,65.8142814 55.1848219,66.0383422 54.9577617,66.0992912 C54.7307014,66.1602403 54.4945597,66.0349974 54.4303244,65.8195535 C53.3781023,62.2904218 50.0210669,51.6022576 49.3098948,49.6238507 C49.2337195,49.4119387 49.3530183,49.1815569 49.5763562,49.1092786 C49.7996942,49.0370003 50.0424977,49.1501959 50.1186731,49.3621079 Z M35.2709754,22.2135583 L31.7103938,28.1466222 L31.4101503,23.8367088 L35.2709754,22.2135583 Z M25.4134352,18.1830718 C25.9248457,18.1390831 26.2624724,18.0197221 26.3832987,18.2050231 C26.4137538,18.258101 26.3882691,18.3400759 26.3902573,18.394097 C26.3157915,18.6940429 25.8368243,18.8451306 25.639544,18.9057544 C25.357857,18.9962183 24.4568564,19.2965073 24.1288089,18.9017244 C23.9805098,18.7443772 23.7613596,18.2107685 23.7613596,18.2107685 C23.7613596,18.2107685 24.5044818,18.2672762 25.4134352,18.1830718 Z M23.7251702,11.6683176 C23.8823886,11.6628275 24.0140624,11.7793072 24.0192717,11.9284824 L24.0192717,11.9284824 L24.0749222,13.5221056 L24.0734751,13.5597005 L23.7465214,16.4716875 C23.7457931,16.4768946 23.7727169,16.5070477 23.7735346,16.508212 L23.7735346,16.508212 L23.8658803,16.5117316 C24.3338888,16.5294837 24.620661,16.5319201 25.1199724,16.5144838 C25.2771909,16.5089936 25.4088646,16.6254733 25.4140739,16.7746486 C25.4192832,16.9238238 25.2960555,17.0492049 25.138837,17.0546951 C24.6233357,17.0726968 24.3225458,17.0701412 23.8410464,17.0518774 C23.7948636,17.0501178 23.7948636,17.0501178 23.7236106,17.0463493 C23.3973315,17.0063662 23.1379876,16.7159167 23.1809527,16.409434 L23.1809527,16.409434 L23.5049259,13.5231468 L23.4499332,11.9483641 C23.4447239,11.7991889 23.5679517,11.6738078 23.7251702,11.6683176 Z M22.0093429,12.8590732 L22.0843606,12.8621664 C22.4278501,12.9042585 22.6659611,13.193422 22.6772798,13.5175488 C22.6648478,13.9777224 22.6058575,14.7370004 22.3306205,15.0170469 C21.8608313,15.4391049 21.1873975,14.1104466 21.5282274,13.260196 C21.629395,12.9832233 21.7712806,12.8847849 21.9369399,12.863679 L22.0093429,12.8590732 Z M27.094539,12.6872071 C27.4361421,12.6752781 27.7302436,12.9354429 27.7700293,13.2585755 C27.8145311,13.716761 27.8409415,14.4730568 27.567591,14.8071244 C27.1566221,15.2812153 26.3142733,14.0125427 26.5687591,13.1382638 C26.6703648,12.7831501 26.8668036,12.6951598 27.094539,12.6872071 Z" id="Combined-Shape" fill="#482D1F" fill-rule="nonzero"></path>
                                            <path d="M29.4790776,0.688642672 C29.7362232,0.706706453 30.6509376,0.782937926 31.9632457,0.81824162 C32.6768053,0.847410575 33.2461437,0.827528838 33.58869,0.842610359 C37.8359209,0.856554796 39.4984912,0.311713541 41.6712395,1.31757954 C42.0763791,1.49273627 43.0042987,1.94711562 43.8343856,2.86465089 C46.1766522,5.46016376 45.7565141,8.93640346 45.6500222,9.96777528 C45.562076,10.6405186 45.4076997,11.2594376 45.2143475,11.824405 C44.029307,11.7092094 42.6991827,11.5351013 41.2238758,11.3019663 C41.1738094,10.6120011 40.9340578,9.92370363 40.4499336,9.32840706 C39.4942582,8.14311508 37.7613907,7.52444478 36.4108838,8.00188881 C35.6512236,8.27045108 35.1596949,8.85465103 35.1047492,8.91055862 C34.892459,9.18323544 34.7302314,9.45876793 34.6068589,9.71274667 C30.2859468,7.94053126 26.929512,7.0149796 24.5375802,6.93507934 C22.8313265,6.87808352 21.1761996,7.2367108 19.5721996,8.01096119 L19.2295971,8.18319979 L19.2260254,8.05587865 C19.2173404,7.07745508 19.4640185,6.11449584 19.9239931,5.18878814 C20.1366368,4.74866644 20.3521102,4.38957643 20.6264039,4.08251936 C22.244364,1.9663859 24.6583556,1.14546576 26.6402336,0.850521265 L26.7387439,0.836244133 C27.8026738,0.669095009 28.7764947,0.641277993 29.4790776,0.688642672 Z M22.5976606,11.641228 C21.8365995,11.8841528 20.921885,11.8079213 20.3762974,11.6917562 C20.0897417,11.6476759 19.9920789,11.2995209 20.1847448,11.1034883 C20.4334012,10.878457 20.8813262,10.6464671 21.4506646,10.6265854 C22.6178084,10.5858278 23.8958202,11.2713732 22.5976606,11.641228 Z M28.5253831,11.6235318 C27.7083314,11.8954554 26.8201974,11.7642087 26.247086,11.6760482 C25.9605303,11.631968 25.8628676,11.2838129 26.0840004,11.0867863 C26.3326568,10.861755 26.7805817,10.6297651 27.3783871,10.6088893 C28.5455309,10.5681317 29.824486,11.2806877 28.5253831,11.6235318 Z" id="Hair" fill="#482D1F" fill-rule="nonzero"></path>
                                            <path d="M41.2129066,10.8108643 C41.3433169,11.602791 41.1930683,12.4649509 40.8142001,13.1582443 C40.3537533,14.0319599 39.7055881,14.5084504 38.8683528,14.8750978 C38.7255178,14.937649 38.663169,15.0982235 38.7290928,15.2337511 C38.7950167,15.3692787 38.9642492,15.4284378 39.1070842,15.3658866 C39.475224,15.2046685 39.7674365,15.0490386 40.105715,14.8003574 C40.6040092,14.4340426 41.021037,13.9743539 41.3218416,13.4035229 C41.7544387,12.6119743 41.9249647,11.6334579 41.7757627,10.7274173 C41.751477,10.5799406 41.6057899,10.4790673 41.4503615,10.5021106 C41.2949331,10.5251538 41.1886209,10.6633876 41.2129066,10.8108643 Z" id="Path" fill="#482D1F" fill-rule="nonzero" transform="translate(40.265773, 12.944830) rotate(-2.000000) translate(-40.265773, -12.944830) "></path>
                                        </g>
                                    </g>
                                </g>
                            </g>
                        </g>
                        <g id="Text" mask="url(#mask-2)">
                            <g transform="translate(19.529854, 167.179361)"></g>
                        </g>
                        <g id="Text" mask="url(#mask-2)">
                            <g transform="translate(224.554483, 194.476658)"></g>
                        </g>
                        <g id="Text" mask="url(#mask-2)">
                            <g transform="translate(19.592002, 130.127764)"></g>
                        </g>
                        <g id="Image" mask="url(#mask-2)">
                            <g transform="translate(122.073242, 130.127764)">
                                <g>
                                    <g id="Image-1">
                                        <g id="Picture"></g>
                                        <g id="Icons-/-Mountains" transform="translate(22.342029, 15.007371)"></g>
                                    </g>
                                </g>
                            </g>
                        </g>
                        <path d="M192.107594,192.574757 C195.045474,192.574757 197.427096,194.956378 197.427096,197.894258 C197.427096,200.832137 195.045474,203.213759 192.107594,203.213759 L127.392744,203.213759 C124.454864,203.213759 122.073242,200.832137 122.073242,197.894258 C122.073242,194.956378 124.454864,192.574757 127.392744,192.574757 L192.107594,192.574757 Z M294.588835,192.574757 C297.526714,192.574757 299.908336,194.956378 299.908336,197.894258 C299.908336,200.832137 297.526714,203.213759 294.588835,203.213759 L229.873984,203.213759 C226.936105,203.213759 224.554483,200.832137 224.554483,197.894258 C224.554483,194.956378 226.936105,192.574757 229.873984,192.574757 L294.588835,192.574757 Z M89.6263538,184.595505 C92.5642333,184.595505 94.9458552,186.977126 94.9458552,189.915006 C94.9458552,192.852885 92.5642333,195.234507 89.6263538,195.234507 L24.9115032,195.234507 C21.9736237,195.234507 19.5920019,192.852885 19.5920019,189.915006 C19.5920019,186.977126 21.9736237,184.595505 24.9115032,184.595505 L89.6263538,184.595505 Z M89.6263538,167.307125 C92.5642333,167.307125 94.9458552,169.688747 94.9458552,172.626627 C94.9458552,175.564506 92.5642333,177.946128 89.6263538,177.946128 L24.9115032,177.946128 C21.9736237,177.946128 19.5920019,175.564506 19.5920019,172.626627 C19.5920019,169.688747 21.9736237,167.307125 24.9115032,167.307125 L89.6263538,167.307125 Z" id="Combined-Shape" fill="#E1E5F0" fill-rule="nonzero"></path>
                        <path d="M77.6841374,147.044343 C80.5588354,147.044343 82.8892386,149.374746 82.8892386,152.249444 C82.8892386,155.124142 80.5588354,157.454545 77.6841374,157.454545 L24.7971031,157.454545 C21.922405,157.454545 19.5920019,155.124142 19.5920019,152.249444 C19.5920019,149.374746 21.922405,147.044343 24.7971031,147.044343 L77.6841374,147.044343 Z M86.7265998,130.127764 C89.6012978,130.127764 91.931701,132.458167 91.931701,135.332865 C91.931701,138.207563 89.6012978,140.537967 86.7265998,140.537967 L24.7971031,140.537967 C21.922405,140.537967 19.5920019,138.207563 19.5920019,135.332865 C19.5920019,132.458167 21.922405,130.127764 24.7971031,130.127764 L86.7265998,130.127764 Z" id="Text" fill="#474961" fill-rule="nonzero"></path>
                    </g>
                </g>
            </g>
        </g>
    </g>
</svg>