<?xml version="1.0" encoding="UTF-8"?>
<svg width="161px" height="286px" viewBox="0 0 161 286" version="1.1" xmlns="http://www.w3.org/2000/svg" xmlns:xlink="http://www.w3.org/1999/xlink">
    <!-- Generator: Sketch 62 (91390) - https://sketch.com -->
    <title>Characters standing / Woman standing / 4</title>
    <desc>Created with Sketch.</desc>
    <g id="Rendered" stroke="none" stroke-width="1" fill="none" fill-rule="evenodd">
        <g id="Mobile" transform="translate(-46.000000, -226.000000)">
            <g id="Characters-standing-/-Woman-standing-/-4" transform="translate(-36.000000, 210.000000)">
                <g id="Woman" transform="translate(82.462598, 16.263992)">
                    <path d="M53.7539183,282.865892 C54.546479,282.865892 55.1889764,283.50839 55.1889764,284.30095 C55.1889764,285.093511 54.546479,285.736008 53.7539183,285.736008 L53.7539183,285.736008 L1.43505808,285.736008 C0.642497386,285.736008 0,285.093511 0,284.30095 C0,283.50839 0.642497386,282.865892 1.43505808,282.865892 L1.43505808,282.865892 Z M155.780512,282.865892 C156.550591,282.865892 157.224409,283.417838 157.224409,284.080172 L157.224409,284.521729 C157.224409,285.184063 156.582677,285.736008 155.780512,285.736008 L122.891732,285.736008 C122.121654,285.736008 121.447835,285.184063 121.447835,284.521729 L121.447835,284.080172 C121.447835,283.417838 122.089567,282.865892 122.891732,282.865892 L155.780512,282.865892 Z" id="Base" fill="#3ABF7C" fill-rule="nonzero"></path>
                    <path d="M148.569675,263.504328 L155.956327,282.875498 C155.898468,282.869161 155.839775,282.865892 155.780512,282.865892 L155.780512,282.865892 L123.002167,282.865292 C124.731162,272.020215 125.595659,266.597676 125.595659,266.597676 L148.569675,263.504328 Z M54.1096566,262.842806 L53.9143101,282.874755 C53.8616535,282.868899 53.808137,282.865892 53.7539183,282.865892 L53.7539183,282.865892 L1.67139395,282.866866 C1.63675502,282.692081 1.61916438,282.471735 1.62414737,282.18626 C1.66014905,281.963619 1.66462896,281.708536 1.73327232,281.454567 C2.1451325,279.93075 2.64427805,278.918768 4.10419544,278.019139 C5.56411284,277.11951 7.05443199,276.316093 8.60723464,275.609446 C14.3344194,272.933934 16.2914047,272.967884 20.0571242,270.513505 C21.6155267,269.488004 23.0484023,268.30085 24.3867126,267.016371 C25.2432313,266.194304 27.054824,264.879302 29.8214909,263.071365 L30.1722986,262.842806 L54.1096566,262.842806 Z" id="Shoes" fill="#474961" fill-rule="nonzero"></path>
                    <path d="M111.936554,89.9174025 C116.050497,96.0038235 119.273701,103.490323 121.606164,112.376902 C123.74479,120.524966 131.886092,157.020781 146.030068,221.864345 C146.678778,223.818465 147.3081,225.243103 147.918183,226.142042 C149.900693,229.063214 155.76462,233.039017 159.896621,238.636477 C164.028621,244.233937 146.923159,243.700463 133.935449,246.754399 C120.947739,249.808335 107.578934,252.97614 107.106725,251.049517 C106.229198,247.419448 112.121658,239.789592 113.920725,233.914216 C108.516975,219.306296 103.209839,204.128137 98.0629871,188.442878 C94.5697993,177.766319 91.2898413,167.255885 88.206583,156.928588 C80.9079111,180.928734 76.3505297,197.477642 68.6633077,222.531516 C67.0726253,227.014378 66.4858215,230.414185 66.9028961,232.730938 C67.5285081,236.206066 70.6132532,242.437032 72.116531,249.231694 C73.6198088,256.026357 58.2032178,248.570851 45.0931504,246.068703 C31.9830829,243.566556 18.4784789,241.013139 18.8293003,239.061456 C19.678472,234.421944 32.9958155,228.354681 34.0488398,222.531516 C35.101864,216.708351 35.8992965,210.367256 36.0463574,209.323652 C42.7921323,169.497303 49.1222728,138.895831 52.5525591,122.250902 C53.9996862,115.113204 56.7796134,101.637166 66.9028961,87.8423646 C67.5614927,86.9697732 68.0951223,86.2907199 68.4086597,85.8706451 C69.3414963,84.889985 70.3862079,84.1512689 71.453767,83.5960242 C71.4303073,83.4017228 71.4071024,83.2091167 71.3839498,83.0170385 C73.9502892,81.1223308 75.6914086,79.7523478 86.0753136,78.9650904 C86.3319674,78.9606105 86.6201464,78.9236853 86.8768002,78.9192053 C96.9443404,78.3926304 105.490176,82.0427717 111.936554,89.9174025 Z" id="Legs" fill="#474BFF" fill-rule="nonzero"></path>
                    <path d="M71.3497569,83.5049301 C72.5401476,93.3853242 73.8732346,104.611358 75.8130799,113.466029 C77.7752252,122.422492 80.3897168,130.912557 83.1126485,139.827534 C84.718367,145.492702 86.3828604,151.218308 88.1090319,157.001365 C80.8449092,180.895045 76.2914987,197.421648 68.6255305,222.406252 C67.0348481,226.889115 66.4480443,230.288922 66.8651189,232.605674 C67.4907309,236.080802 70.575476,242.311769 72.0787538,249.106431 C73.5820317,255.901093 58.1654406,248.445587 45.0553732,245.94344 C31.9453057,243.441292 18.4407017,240.887876 18.7915231,238.936192 C19.6406949,234.29668 32.9580383,228.229417 34.0110626,222.406252 C35.0640868,216.583088 35.8615193,210.241992 36.0085802,209.198388 C42.7543551,169.372039 49.0844956,138.770567 52.5147819,122.125639 C53.961909,114.98794 56.7418362,101.511903 66.8651189,87.717101 C67.5237155,86.8445096 68.0573451,86.1654563 68.3708825,85.7453815 C69.2246948,84.847797 70.1722303,84.1529008 71.1452243,83.6158571 Z" id="Shadow-T-shirt" fill="#444444" fill-rule="nonzero" opacity="0.176985679"></path>
                    <path d="M100.445231,33.8818053 L100.517722,33.9114993 C102.283811,34.4199578 103.956122,35.1623364 105.406048,36.0846839 C111.626894,40.0419783 115.289566,47.5844072 112.446637,55.0105597 C111.854366,56.55766 109.865496,58.4307832 106.480028,60.6299294 C106.205536,60.6605442 105.933231,60.6874162 105.663112,60.7105456 L104.59807,72.1371366 C104.565983,72.4879286 104.533897,72.8068304 104.533897,73.1576224 C104.50181,74.7521313 104.213031,77.1120046 102.833306,78.8340743 C100.908109,81.257728 98.0524006,84.7656477 86.1161802,84.8932084 C73.2815345,85.0207692 70.2012195,81.5128494 68.2118495,79.0254154 C66.8321251,77.3352359 66.4791723,75.2942644 66.4470857,73.6359751 C66.4470857,73.2851831 66.4149991,72.9662813 66.3829125,72.6154893 L65.2498242,60.6227922 C59.2318002,59.6210401 58.3127207,55.6577328 57.3197476,52.590785 C55.296759,46.3424787 59.6181124,38.9955549 64.9840361,35.481897 C68.8065091,32.9789054 73.4950725,31.9281616 77.8576228,32.8244697 C79.8615782,32.2366242 82.0283802,31.9065153 84.3193298,31.8917301 L86.1482668,31.8917301 C91.6538602,31.8590621 96.6796433,32.3367318 100.445231,33.8818053 Z" id="T-shirt" fill="#3ABF7C" fill-rule="nonzero"></path>
                    <path d="M65.1087501,35.383826 C68.9674606,32.8571056 73.7087607,31.8102987 78.1063204,32.7524153 C71.3367282,34.6521876 66.3792454,39.4748396 64.6823219,45.030484 C64.1689361,46.6887734 64.0726762,48.4746234 64.2651959,50.1966931 L64.2651959,50.1966931 L65.2367371,60.5011104 C59.3423881,59.4621252 58.4298061,55.5360997 57.4444616,52.492714 C55.421473,46.2444076 59.7428264,38.8974839 65.1087501,35.383826 Z" id="Shadow-T-shirt" fill="#444444" fill-rule="nonzero" opacity="0.176985679"></path>
                    <path d="M144.867452,244.789462 L148.572029,263.510214 L125.658541,266.712941 L123.22873,249.158134 C126.663798,248.393783 130.369125,247.520569 134.043942,246.65647 C137.518883,245.839371 141.288599,245.279081 144.867452,244.789462 Z M36.0075203,244.192582 C38.7021726,244.729428 41.5354259,245.271083 44.3644324,245.811 L45.2016438,245.970775 C49.2719747,246.747626 53.5646405,248.00195 57.504238,249.159029 L54.1140748,263.189652 L29.8405512,263.189652 L36.0075203,244.192582 Z M15.7554629,29.8207436 C17.9758897,32.7179616 19.2544225,34.4468849 19.5910611,35.0075135 C24.6313237,43.4014255 28.6905731,41.9154792 33.6215676,48.0821186 L49.0019425,61.2447018 L54.6249189,55.4797816 C53.9793739,53.0435849 53.3559764,50.4739297 52.7547263,47.770816 L52.5899753,47.0270138 L52.4337894,46.9215696 C50.7256484,45.7570429 48.128513,43.6947482 43.9730958,40.23533 C43.5712774,39.900813 41.5926025,39.4569246 38.037071,38.9036648 C32.7519395,39.5955173 30.3645163,38.1165013 30.8748016,34.4666168 L57.3250362,32.7275973 C60.3273921,36.4921333 62.3575848,39.491078 63.4156143,41.7244313 L77.002594,61.988327 L84.0788654,50.5837436 C86.1472583,54.2751939 89.2222236,55.9463044 93.4594364,58.3278168 C96.9368752,60.2823007 101.122963,61.0238955 106.017699,60.5526014 C96.560261,79.1340197 87.2895723,88.5587828 78.2053034,88.8276784 C72.937207,88.9836147 68.2213333,85.8119067 64.0576823,79.3125543 L64.0735752,79.2988885 L63.7424219,79.5574564 C60.1763168,82.2783732 56.559584,83.5003008 52.8928489,83.2243059 C42.111971,82.41283 31.0210835,71.9497966 19.6201865,51.8352057 L19.2710826,51.216438 L19.271959,51.2150512 L7.87357523,29.5450441 C10.7182438,27.1830452 13.3455397,27.2749451 15.7554629,29.8207436 Z M75.5575653,0.420321701 C75.7793862,0.467706023 76.4768575,0.612083535 77.4601665,0.808294462 C78.3727439,1.09549379 79.2600276,1.28503107 80.1860344,1.38135542 C80.6959314,1.44876066 81.0486974,1.92083017 81.0128854,2.42983011 L80.1198091,10.5515838 C80.0978901,10.7462314 82.5151937,8.90955285 85.0170915,9.56705385 C85.8238461,9.77906971 86.9367658,10.9054872 88.3558503,12.9463062 C87.8500938,14.4846638 87.5851498,15.2757819 87.5610182,15.3196603 C86.5115404,17.2279297 85.7419387,18.4276819 85.2522134,18.9189168 L85.0574356,24.0336119 L85.3864258,31.8916328 L84.3193298,31.8917301 C81.2661876,31.9114343 78.4335417,32.4911793 75.9122185,33.4936787 L75.6289617,27.2289637 C75.5445693,27.2499687 75.4588039,27.271159 75.3716459,27.2925323 C72.5562479,27.9919712 72.7207667,27.939469 72.5242395,27.9897467 C70.444363,28.2927507 68.7270978,28.0135627 68.4114898,27.9276922 C65.779409,27.3931174 63.2865383,22.1369458 62.8254142,14.9760227 C62.7696773,14.3967241 62.8099658,13.8240991 62.8182458,13.2492497 L63.3149178,7.5614864 C63.4044477,6.28898653 63.8438324,5.07276918 64.560102,4.03563522 C64.6330719,3.91283433 64.7038035,3.82184593 64.7745352,3.73085753 C65.0209768,3.42830439 65.2674185,3.12575125 65.5093837,2.8868231 C66.4452359,1.92888596 67.5209861,1.26838403 68.613077,0.832794115 C71.1813603,-0.0116911524 74.0048189,0.0886314471 75.5575653,0.420321701 Z" id="Skin" fill="#F2A98A" fill-rule="nonzero"></path>
                    <path d="M15.9035412,29.8207436 C18.1239681,32.7179616 19.4025008,34.4468849 19.7391395,35.0075135 C24.779402,43.4014255 28.8386514,41.9154792 33.7696459,48.0821186 L49.1500208,61.2447018 L54.8056311,55.4462575 C57.5554818,65.8062032 60.7066804,73.7476624 64.259227,79.270635 C60.5737655,82.1923212 56.8341014,83.5098179 53.0409272,83.2243059 C42.2600493,82.41283 31.1691618,71.9497966 19.7682648,51.8352057 L19.4191609,51.216438 L19.4206535,51.2148885 L19.4200373,51.2150512 L8.02165354,29.5450441 C10.8663222,27.1830452 13.493618,27.2749451 15.9035412,29.8207436 Z" id="Shadow-Arm" fill="#8C2A00" fill-rule="nonzero" opacity="0.2"></path>
                    <polygon id="Shadow" fill="#482D1F" fill-rule="nonzero" transform="translate(77.496496, 28.064466) rotate(4.000000) translate(-77.496496, -28.064466) " points="75.8860055 30.0352464 79.4099107 26.0936858 75.5830803 27.3579539"></polygon>
                    <path d="M75.628297,0.329333304 C75.8501179,0.376717626 76.5475891,0.521095138 77.5308981,0.717306065 C77.816736,0.76913948 78.1025738,0.820972895 78.4524285,0.877255402 C79.2801718,0.998718604 79.9158644,1.10683453 80.2977276,1.16534158 C85.1406299,1.82159761 87.0671788,1.41203341 89.4058148,2.9172238 C89.8360271,3.20286742 90.8177709,3.87849035 91.6036604,5.05199048 C93.8720183,8.47037977 92.8515663,12.4594023 92.5744621,13.6549299 C92.2980551,14.7219755 91.8944957,15.6466981 91.4446213,16.4423346 C91.021015,17.9617974 91.1411267,19.1248356 91.8035772,19.9310287 C95.1207136,23.9679376 96.6278313,24.5580153 95.7983291,26.0355855 C94.8509278,27.7231662 91.3210712,28.1675731 85.2087591,27.3688061 C81.1239801,24.6233792 82.055538,19.6651489 82.055538,19.2600535 C82.0540867,19.2606543 82.0525212,19.2572867 82.0509552,19.2539185 C82.4733365,19.1864115 83.7980079,19.0861891 84.8953595,18.1082582 C85.991254,17.1614438 86.7180418,15.5176479 86.2902871,13.8255807 C85.9220727,12.2015877 84.4774352,10.7904971 82.9387912,10.7155314 C82.0723247,10.6872811 81.3390415,11.0519036 81.2385397,11.1088549 C80.1284365,11.7282712 79.5460821,12.6425893 79.4878567,12.7371174 L79.4830049,12.7450904 L79.116221,13.4328369 C79.0145944,13.2502562 78.9179128,13.0797571 78.8271681,12.9232869 C76.7611598,10.2861939 74.6929133,7.68091342 72.5948966,5.04159588 C68.8855357,3.92066264 65.3990365,3.99803594 64.8452668,3.63986913 C65.0917085,3.33731599 65.3381501,3.03476285 65.5801153,2.7958347 C66.5159675,1.83789757 67.5917177,1.17739563 68.6838087,0.741805718 C71.2520919,-0.102679549 74.0755505,-0.0023569499 75.628297,0.329333304 Z M70.0690805,10.6889044 C71.3826465,10.7849433 72.7180222,11.7511447 71.2658998,11.9916238 C70.3032201,12.1954419 69.295833,11.9761185 68.6706152,11.8034324 C68.3599615,11.7012631 68.2794962,11.3058877 68.5616484,11.1154118 C68.8795584,10.8971699 69.3963738,10.6389417 70.0690805,10.6889044 Z M63.8269812,9.92716308 C65.1405472,10.023202 66.4798333,10.957751 65.0238005,11.2298825 C64.0929682,11.437587 63.0855811,11.2182637 62.4922108,11.049464 C62.1815571,10.9472947 62.1010918,10.5519192 62.3513965,10.357557 C62.6693065,10.1393151 63.186122,9.88108685 63.8269812,9.92716308 Z" id="Hair" fill="#482D1F" fill-rule="nonzero"></path>
                    <path d="M11.0844321,17.604826 L11.0844321,17.604826 C11.9825597,17.1269284 12.9451304,17.1593318 13.2341864,17.7016437 L26.9797342,42.2336388 C27.2687902,42.7759507 26.8200419,43.6048954 25.9219314,44.1146846 L25.9219314,44.1146846 C25.0238038,44.5925822 24.0612331,44.5601788 23.772177,44.0178669 L10.0266293,19.4858718 C9.70547111,18.9116511 10.1863045,18.0827235 11.0844321,17.604826 Z" id="Phone" fill="#474961" fill-rule="nonzero" transform="translate(18.496905, 30.859755) rotate(-5.000000) translate(-18.496905, -30.859755) "></path>
                    <path d="M69.5138814,13.5168703 L69.5897571,13.5220812 C69.9719264,13.5687186 70.2552075,13.8924552 70.2719779,14.2800578 C70.3010438,14.8298092 70.2552482,15.7238514 69.8898493,16.0648167 C69.4054458,16.5840376 68.5980522,15.0075443 68.9461163,14.0218701 C69.0964039,13.5903948 69.3349775,13.4909899 69.5897571,13.5220812 Z M63.8215739,13.0149996 L63.8974495,13.0202106 C64.2796189,13.066848 64.5628999,13.3905846 64.5796703,13.7781872 C64.5768889,14.3240521 64.5629407,15.2219807 64.1975418,15.5629461 C63.7131382,16.082167 62.9057446,14.5056736 63.2538087,13.5199995 C63.4040963,13.0885241 63.6426699,12.9891193 63.8974495,13.0202106 Z" id="Eyes" fill="#482D1F" fill-rule="nonzero"></path>
                    <path d="M67.9391157,20.4069731 C68.1637491,20.3430206 68.7093145,20.151258 68.8058269,19.8003627 C68.8058745,19.7365765 68.8380294,19.6408734 68.8059933,19.577111 C68.677801,19.3858475 68.2606417,19.4818357 67.6830876,19.5460495 C66.6563381,19.6424892 65.8222332,19.5474277 65.8222332,19.5474277 C65.8222332,19.5474277 66.0784276,20.1850995 66.2387273,20.3444462 C66.5591841,20.8544982 67.5861237,20.5029137 67.9391157,20.4069731 Z" id="Mouth" fill="#482D1F" fill-rule="nonzero" transform="translate(67.321216, 20.039366) rotate(7.000000) translate(-67.321216, -20.039366) "></path>
                    <path d="M65.693735,17.7077739 L65.691736,17.7433157 C65.691736,18.0913503 65.9313748,18.4145834 66.2807182,18.4724509 C66.3448207,18.4785999 66.3806183,18.4811255 66.4164746,18.4834438 C66.7558347,18.5053853 66.9994472,18.5086801 67.8736257,18.5086801 C68.0508352,18.5086801 68.1944919,18.3659029 68.1944919,18.1897783 C68.1944919,18.0136537 68.0508352,17.8708765 67.8736257,17.8708765 C67.0149043,17.8708765 66.778113,17.867674 66.4581336,17.8469856 C66.4247986,17.8448303 66.3915209,17.8424824 66.3580775,17.8399256 C66.3652923,17.8399605 66.338432,17.8029499 66.3340611,17.7558879 L66.7165086,14.3666084 L66.7183234,14.3202625 L66.6541502,12.4387419 C66.6481465,12.2627184 66.4997054,12.1248603 66.3225977,12.1308272 C66.1454899,12.1367941 66.0067826,12.2843265 66.0127863,12.46035 L66.0761669,14.3186319 L65.693735,17.7077739 Z" id="Nose" fill="#482D1F" fill-rule="nonzero" transform="translate(66.943114, 15.319660) rotate(7.000000) translate(-66.943114, -15.319660) "></path>
                    <path d="M37.7934601,12.7235197 C39.2317749,16.2597572 36.6877508,19.4147203 30.161388,22.1884088 L30.1614173,22.3231257 C30.1074381,22.3007304 30.0537209,22.2783101 30.0002656,22.2558648 L29.8405512,22.3231257 L29.8405512,22.3231257 L29.8396932,22.1880316 C23.3139871,19.4144343 20.7702588,16.2595969 22.2085084,12.7235197 C23.6701614,9.12990291 26.321131,8.60476895 30.1614173,11.1481178 L30.0008976,11.0440539 L30.0790205,10.9931539 C33.7907784,8.62798134 36.3622582,9.20476993 37.7934601,12.7235197 Z" id="Heart" fill="#FF5645" fill-rule="nonzero"></path>
                    <path d="M84.3574594,50.6828483 C84.0398295,46.1351259 84.7977117,42.7440465 86.6045541,40.4946195 C86.770395,40.2881559 86.7364329,39.9871665 86.5286976,39.8223408 C86.3209622,39.6575151 86.0181188,39.6912693 85.8522779,39.8977329 C83.8738042,42.3608321 83.0642862,45.9829513 83.3971718,50.7490997 C83.4155793,51.0126523 83.6454693,51.2114731 83.9106454,51.1931783 C84.1758215,51.1748835 84.3758669,50.946401 84.3574594,50.6828483 Z" id="Shadow" fill="#482D1F" fill-rule="nonzero"></path>
                </g>
            </g>
        </g>
    </g>
</svg>